<svg version="1.1" xmlns="http://www.w3.org/2000/svg" viewBox="0 0 912 1051" width="912" height="1051">
  <!-- svg-source:excalidraw -->
  
  <defs>
    <style>
      @font-face {
        font-family: "Virgil";
        src: url("https://excalidraw.com/Virgil.woff2");
      }
      @font-face {
        font-family: "Cascadia";
        src: url("https://excalidraw.com/Cascadia.woff2");
      }
    </style>
  </defs>
  <rect x="0" y="0" width="912" height="1051" fill="#ffffff"></rect><g transform="translate(320 23) rotate(0 83 73)"><path d="M48.53417387957023 5.727718861081826 C58.37522450135001 0.499718639258254, 72.39173876350134 -1.0603297176200712, 84.27047313793851 -0.6223666796551726 C96.14920751237568 -0.1844036416902739, 108.9955094720285 3.445289346482604, 119.80658012619324 8.355497088871218 C130.617650780358 13.265704831259832, 141.59575424641437 20.65660685390108, 149.13689706292695 28.838879774676506 C156.67803987943952 37.02115269545193, 162.51303808164963 47.192521626308604, 165.0534370252687 57.44913461352375 C167.59383596888776 67.7057476007389, 167.26934668629121 79.97852154805965, 164.3792907246413 90.37855769796738 C161.48923476299137 100.77859384787511, 155.18136499155716 111.63133266359355, 147.7131012553691 119.84935151297016 C140.24483751918106 128.06737036234676, 130.36855709247405 135.3672699544573, 119.56970830751307 139.68667079422704 C108.77085952255209 144.00607163399678, 94.80656505338555 145.86057739443726, 82.92000854560327 145.76575655158857 C71.03345203782098 145.67093570873988, 58.844415764896816 143.4878084227431, 48.25036926081938 139.11774573713484 C37.65632275674195 134.7476830515266, 27.0420385716079 127.78241768047765, 19.355729521138656 119.54538043793909 C11.669420470669412 111.30834319540052, 4.918881759591626 100.01284817141342, 2.1325149580039238 89.6955222819035 C-0.6538518435837779 79.37819639239356, 0.22177207013452227 67.90344076734391, 2.637528711612447 57.64142510087946 C5.053285353090372 47.379409434415, 9.617199782733792 36.286429229556944, 16.62705480687147 28.123428283116752 C23.63690983100915 19.96042733667656, 38.69765409167718 12.380219779850172, 44.69665885643852 8.663419422238306 C50.695663621199856 4.946619064626439, 50.47213384790934 6.364275654716494, 52.6210833954395 5.822626137445553 C54.77003294296966 5.280976620174613, 57.17017768139641 4.570836306291992, 57.590356141619466 5.413522318612664 M59.992911496086776 4.678116400948667 C70.40643378893714 0.5989186728664118, 83.44829339365234 -1.235156919500908, 94.98178204904727 0.23369314465666946 C106.5152707044422 1.702543208814247, 119.256666621365 7.495911243781761, 129.19384342845638 13.491216785894132 C139.13102023554774 19.4865223280065, 148.5287682387757 27.19244677842169, 154.60484289159552 36.20552639733089 C160.68091754441534 45.218606016240095, 164.8849102858647 57.37957548620021, 165.6502913453753 67.56969449934934 C166.41567240488592 77.75981351249847, 163.22506895369617 87.47899805150672, 159.19712924865925 97.34624047622566 C155.16918954362234 107.2134829009446, 149.8591643394733 119.16152995139238, 141.48265311515374 126.773149047663 C133.10614189083418 134.3847681439336, 120.52948365567697 139.82345283953987, 108.93806190274188 143.01595505384932 C97.34664014980679 146.20845726815878, 83.82392068595732 147.44420764064867, 71.93412259754318 145.92816233351974 C60.04432450912904 144.4121170263908, 47.597634593843885 139.60612512675385, 37.599273372257045 133.9196832110757 C27.600912150670204 128.23324129539753, 18.116701971107126 120.52286981946989, 11.943955268022137 111.80951083945075 C5.771208564937147 103.09615185943161, 1.6916109845788228 92.01918645085433, 0.5627931537471085 81.63952933096085 C-0.5660246770846058 71.25987221106737, 1.070429596838605 59.51165984894402, 5.171048283031851 49.53156812008989 C9.271666969225098 39.55147639123575, 16.810783935600334 29.137615746467443, 25.166505270906583 21.758978957836035 C33.52222660621283 14.380342169204628, 49.722675173165655 8.283194666773335, 55.30537629486936 5.2597473883014345 C60.88807741657307 2.2363001098295334, 58.00246348248807 3.820431100003354, 58.66271200112884 3.618295287004628 C59.32296051976961 3.4161594740059016, 58.812839714879345 2.9736747743901653, 59.26686740671397 4.046932510309077" stroke="#000000" stroke-width="1" fill="none"></path></g><g transform="translate(335 83.5) rotate(0 68 12.5)"><text x="68" y="18" font-family="Virgil, Segoe UI Emoji" font-size="20px" fill="#000000" text-anchor="middle" style="white-space: pre;" direction="ltr">light red bags</text></g><g transform="translate(192 192) rotate(0 82 82)"><path d="M89.62540718366755 0.38953926553872975 C100.74614777962469 0.5494006613446251, 113.76005751154285 6.446981355964273, 123.93161725575237 12.28591132313079 C134.10317699996187 18.124841290297308, 144.22775934556668 26.09107309938637, 150.65476564892464 35.42311906853783 C157.0817719522826 44.75516503768929, 160.65675959184983 56.876128829042166, 162.4936550759001 68.27818713803953 C164.33055055995038 79.68024544703688, 164.66274657231725 92.70370573339883, 161.67613855322628 103.83546892252198 C158.68953053413532 114.96723211164513, 152.05411600067902 126.4562261470173, 144.57400696135426 135.06876627277845 C137.0938979220295 143.6813063985396, 127.42995149534188 150.5753127115292, 116.79548431727773 155.5107096770888 C106.16101713921357 160.44610664264843, 92.2476824427751 164.5708406394459, 80.76720389296935 164.68114806613616 C69.2867253431636 164.79145549282643, 58.1056616562251 161.24369118873514, 47.91261301844324 156.17255423723043 C37.719564380661375 151.10141728572572, 27.070034734737717 143.12517495203232, 19.608912066278172 134.2543263571079 C12.147789397818627 125.3834777621835, 6.262434993730476 114.05323044917826, 3.145877007685968 102.94746266768398 C0.029319021641459386 91.8416948861897, -1.061458938407057 78.9041859313363, 0.9095641500111213 67.61971966814227 C2.8805872384292996 56.33525340494824, 8.25819732591333 44.59405582572249, 14.972015538195038 35.240665088519805 C21.685833750476746 25.887274351317117, 31.21441715575869 17.203968376678677, 41.192473423701365 11.499375244926128 C51.17052969164404 5.7947821131735795, 64.4186536477565 2.4331354115256234, 74.84035314585111 1.0131062980045158 C85.26205264394572 -0.40692281551659204, 96.81483506039307 1.6600137238081558, 103.72267041226907 2.9792005637994805 C110.63050576414507 4.298387403790805, 116.62704050793693 7.624855643306245, 116.2873652571071 8.928227337952464 M68.15513809588055 1.2778428688359185 C78.76657435367089 -1.6996314806294883, 92.52596986035184 0.8116191569224944, 103.51336191832067 3.5899535566219782 C114.5007539762895 6.368287956321462, 125.43185145205913 10.945868577714666, 134.07949044369352 17.947849267032822 C142.7271294353279 24.949829956350978, 150.36162415397973 35.24696198983018, 155.39919586812698 45.601837692530914 C160.43676758227423 55.956713395231645, 164.25753028156575 68.11441510310041, 164.30492072857697 80.07710348323721 C164.3523111755882 92.039791863374, 160.5234756063905 106.73769688944871, 155.68353855019427 117.37796797335173 C150.84360149399805 128.01823905725473, 143.98202938302597 136.48867994913155, 135.26529839139965 143.91872998665528 C126.54856739977332 151.348780024179, 114.30233593529053 158.89224236099432, 103.38315260043629 161.958268198494 C92.46396926558205 165.0242940359937, 80.91527279521856 164.44479673842895, 69.7501983822742 162.31488501165336 C58.58512396932985 160.18497328487777, 46.02768118926777 155.5788429447221, 36.392706122770164 149.17879783784045 C26.75773105627256 142.7787527309588, 17.922159991250638 133.637562437051, 11.94034798328859 123.91461437036334 C5.958535975326541 114.19166630367567, 1.7688490809704784 102.31471785025423, 0.5018340749978734 90.84110943771451 C-0.7651809309747317 79.36750102517479, 0.6733952435259289 66.11469839447483, 4.338257947452959 55.072963895125 C8.003120651379989 44.03122939577516, 14.641309134979902 32.9769155659074, 22.491010298560056 24.59070244161549 C30.34071146214021 16.204489317323585, 43.84618150271614 8.588712198082463, 51.43646492893387 4.755685149373562 C59.026748355151604 0.9226581006646604, 65.40600670902205 1.6837378733403081, 68.03271085586644 1.5925401493620797 C70.65941500271083 1.5013424253838512, 67.17694335827683 2.7043079447575975, 67.19668981000018 4.208498805504192" stroke="#000000" stroke-width="1" fill="none"></path></g><g transform="translate(218 256) rotate(0 57.5 12.5)"><text x="0" y="18" font-family="Virgil, Segoe UI Emoji" font-size="20px" fill="#000000" text-anchor="start" style="white-space: pre;" direction="ltr">bright white</text></g><g transform="translate(470 190) rotate(0 83.5 81.5)"><path d="M78.53153338351362 -0.05192457837816278 C89.50938271848587 -2.101321965527054, 102.75834290980124 1.2400927131281572, 113.70923544043663 5.456943416950452 C124.66012797107201 9.673794120772747, 136.18555247861374 16.803952724760606, 144.23688856732596 25.249179644555603 C152.28822465603818 33.6944065643506, 158.18322657781158 45.24362529686894, 162.01725197270991 56.12830493572045 C165.85127736760825 67.01298457457196, 168.54737008472446 79.40684666855421, 167.241040936716 90.55725747766465 C165.93471178870752 101.70766828677509, 160.47379000738195 113.18807773675817, 154.17927708465902 123.03076979038306 C147.8847641619361 132.87346184400795, 139.0201427553718 143.04816905691507, 129.47396340037847 149.613409799414 C119.92778404538512 156.17865054191293, 108.36680585435867 160.55059937476648, 96.90220095469896 162.42221424537667 C85.43759605503924 164.29382911598685, 71.91891024916458 164.02688292664465, 60.68633400242018 160.84309902307518 C49.45375775567579 157.65931511950572, 38.382974010672555 150.85486638975007, 29.50674347423257 143.31951082395997 C20.630512937792588 135.78415525816987, 12.351315422934391 125.9052932389083, 7.428950783780294 115.63096562833454 C2.5065861446261986 105.35663801776077, -0.04316540802962976 93.13760384220464, -0.027444360692001624 81.67354516051738 C-0.011723313354373488 70.20948647883012, 2.4810603379753724 57.088386433977526, 7.523277067806063 46.84661353821096 C12.565493797636755 36.604840642444394, 21.411974359993707 27.410800889212865, 30.22585601829214 20.22290778591797 C39.039737676590576 13.035014682623071, 49.702546553743744 7.059607786905664, 60.40656701759667 3.719254918441578 C71.1105874814496 0.3789020499774929, 86.15255795027943 -0.3062362235767206, 94.4499788014097 0.1807905751334573 C102.74739965253997 0.6678173738436353, 110.30062993309932 5.3452149472204455, 110.19109212437826 6.6414157107026455 M114.61450920703658 5.967501788863942 C125.62284206286336 8.548421844580593, 136.34652689964693 15.953907100642194, 144.17323383787846 23.95292452640743 C151.99994077610998 31.951941952172664, 158.05181772614503 43.035020198992015, 161.57475083642578 53.96160634345535 C165.09768394670652 64.88819248791869, 166.61455017612366 78.13423949267748, 165.3108324995629 89.51244139318744 C164.00711482300215 100.89064329369741, 159.33708957722592 112.52006799783715, 153.75244477706119 122.23081774651511 C148.16779997689645 131.94156749519308, 141.17425643531797 141.27873052800163, 131.80296369857442 147.77693988525527 C122.43167096183086 154.27514924250892, 109.02340266583796 159.2416109949039, 97.52468835659985 161.22007389003693 C86.02597404736174 163.19853678516995, 74.02177535207497 162.70976913711536, 62.81067784314572 159.6477172560534 C51.59958033421647 156.58566537499144, 39.48412328715268 150.29225441076986, 30.258103303024363 142.8477626036651 C21.03208331889605 135.40327079656035, 12.680095172145357 125.24642366466297, 7.454557938375842 114.98076641342487 C2.229020704606328 104.71510916218678, -1.3193659550332082 92.3006518581835, -1.0951200995927195 81.2538190962365 C-0.8708742441522309 70.2069863342895, 3.489800822361886 59.03563780423704, 8.800033071018774 48.699769841742885 C14.110265319675662 38.36390187924873, 22.12562488144011 26.98221411495541, 30.76627339234861 19.238611321271577 C39.40692190325711 11.495008527587743, 49.73046151328093 5.146047613374286, 60.64392413646975 2.238153079639872 C71.55738675965857 -0.6697414540945417, 87.41145551923509 1.0824194735447867, 96.24704913148155 1.7912441188650945 C105.082642743728 2.5000687641854022, 110.79931039395777 5.417082467266904, 113.6574858099485 6.4911009515617195 C116.51566122593923 7.565119435856535, 113.74412956400198 7.041774303175539, 113.39610162742592 8.23535502463399" stroke="#000000" stroke-width="1" fill="none"></path></g><g transform="translate(491 258) rotate(0 59.5 12.5)"><text x="59.5" y="18" font-family="Virgil, Segoe UI Emoji" font-size="20px" fill="#000000" text-anchor="middle" style="white-space: pre;" direction="ltr">muted yellow</text></g><g transform="translate(94 394) rotate(0 67 79)"><path d="M91.8910486818441 5.689871296759037 C101.16478794472083 8.498189655524815, 110.36695502298527 16.637032952090408, 116.8578733939427 25.136464269172272 C123.34879176490013 33.635895586254136, 128.30601761041254 45.349620979524744, 130.8365589075887 56.68645919925024 C133.36710020476488 68.02329741897573, 133.91527401929105 81.64273234762086, 132.0411211769997 93.15749358752522 C130.16696833470834 104.67225482742958, 125.27878740161891 116.48668755135161, 119.59164185384056 125.77502663867637 C113.9044963060622 135.06336572600114, 106.58825528712339 143.59153156215856, 97.91824789032954 148.88752811147378 C89.24824049353569 154.183524660789, 77.46616517594832 157.4179846707437, 67.57159747307743 157.55100593456763 C57.677029770206545 157.68402719839156, 47.41936760078629 154.84474764353254, 38.55084167310421 149.6856556944173 C29.682315745422127 144.52656374530207, 20.608307693808634 135.9137502792863, 14.360441906984938 126.59645423987628 C8.112576120161243 117.27915820046626, 3.1901992052791983 105.19744259923873, 1.0636469521620313 93.78187945795719 C-1.0629053009551357 82.36631631667565, -1.1529463352574134 69.14691034167217, 1.6011283882819356 58.103075392187016 C4.355203111821284 47.05924044270186, 10.73767668091915 36.255649873804636, 17.588095293398126 27.518869761046247 C24.4385139058771 18.782089648287858, 33.69118476070543 10.314896126203617, 42.70364006315579 5.68239471563669 C51.716095365606144 1.0498933050697632, 63.31715355310503 -0.46393640675576364, 71.66282710810026 -0.27613870235531124 C80.00850066309549 -0.08834099795485884, 89.02448184594769 5.225101985297624, 92.77768139312717 6.809180942039404 C96.53088094030664 8.393259898781183, 94.5426942503118 7.9789495510811195, 94.1820243911771 9.228335038095366 M78.21091214291224 2.0208790150155664 C87.78753630306193 3.2742573270372572, 100.3596755323699 9.437463417603091, 108.66229669267773 16.64250289521121 C116.96491785298555 23.847542372819326, 124.00042801738178 35.0339343220561, 128.02663910475917 45.251115880664265 C132.05285019213656 55.46829743927243, 133.01058426345548 66.35956393588181, 132.81956321694207 77.9455922468602 C132.62854217042866 89.5316205578386, 130.94849382546923 104.05249566944217, 126.8805128256787 114.76728574653458 C122.81253182588817 125.482075823627, 116.40623474414588 135.29930808789203, 108.41167721819893 142.2343327094147 C100.41711969225199 149.16935733093737, 88.63566278842445 154.4230262970166, 78.91316766999698 156.37743347567067 C69.1906725515695 158.33184065432474, 59.5934392924628 157.25080069709063, 50.07670650763406 153.96077578133907 C40.55997372280532 150.6707508655875, 29.548487026095952 143.97989798695795, 21.812770961024533 136.63728398116132 C14.077054895953115 129.29466997536468, 7.486379911510188 120.36504782428486, 3.662410117205553 109.90509174655925 C-0.16155967709908126 99.44513566883364, -1.9125706261485127 85.69141078762985, -1.1310478048032735 73.8775475148077 C-0.3495249834580344 62.063684241985555, 3.0398942401444584 49.14609165270546, 8.351547045276988 39.021912109626385 C13.663199850409516 28.89773256654731, 22.380003692052718 19.32628148202021, 30.738869025991903 13.132470256333278 C39.09773435993109 6.938659030646346, 50.161480053757735 3.7549043432863813, 58.50473904891209 1.8590447555047973 C66.84799804406644 -0.036814832276786946, 77.57031393795664 1.5651280696763479, 80.79842299691803 1.7573127296437718 C84.02653205587943 1.9494973896111958, 78.41225990069957 1.8382257392371457, 77.87339340268042 3.012152715309341" stroke="#000000" stroke-width="1" fill="none"></path></g><g transform="translate(115 460.5) rotate(0 46 12.5)"><text x="46" y="18" font-family="Virgil, Segoe UI Emoji" font-size="20px" fill="#000000" text-anchor="middle" style="white-space: pre;" direction="ltr">shiny gold</text></g><g transform="translate(686 423) rotate(0 108 93)"><path d="M146.35687878155397 6.6075116583962625 C159.01692639161885 9.285732330782018, 170.64713067604941 16.740027802606562, 180.7182826585967 24.70987199004476 C190.789434641144 32.67971617748296, 200.83481815741771 43.69861892677773, 206.78379067683778 54.42657678302545 C212.73276319625785 65.15453463927318, 215.89163975967472 77.25455071939761, 216.41211777511708 89.0776191275311 C216.93259579055945 100.90068753566457, 214.87800573800985 114.32065616648211, 209.90665876949203 125.36498723182632 C204.9353118009742 136.40931829717053, 195.9078434640668 146.6703725075024, 186.58403596401024 155.3436055195963 C177.2602284639537 164.0168385316902, 166.46068810087397 172.27103099566628, 153.96381376915275 177.40438530438973 C141.46693943743153 182.5377396131132, 125.65487742646738 185.54261113067423, 111.602789973683 186.14373137193698 C97.55070252089862 186.74485161319973, 82.54323207350357 185.09173069083772, 69.65128905244646 181.01110675196628 C56.75934603138934 176.93048281309484, 44.206510470450695 169.83306907826, 34.251131847340304 161.6599877387083 C24.295753224229912 153.48690639915662, 15.45066111540708 142.78619152806527, 9.919017313784124 131.9726187146561 C4.387373512161169 121.15904590124694, 1.5901160957192864 108.5517396029889, 1.061269037602571 96.77855085825328 C0.5324219794858559 85.00536211351766, 2.1196269153148224 72.51968195034463, 6.745934965083833 61.33348624624238 C11.372243014852845 50.14729054214013, 19.37675730358248 38.569706313016916, 28.819117336216635 29.66137663363974 C38.26147736885079 20.753046954262565, 50.914575668690816 12.717024086781695, 63.40009516088875 7.883508169979322 C75.88561465308669 3.049992253176949, 89.47141357229174 0.9029197419046943, 103.73223428940427 0.6602811328255029 C117.99305500651681 0.4176425237463116, 140.9229759482372 4.8012722682192575, 148.965019463564 6.427676515504174 C157.00706297889081 8.054080762789091, 152.66227527758105 8.981629367302936, 151.98449538136518 10.418706616535005 M78.4457177343502 2.2383220023526746 C90.76330581181624 -2.242217310675933, 107.89798220040255 0.1540193963851617, 121.63144138143248 1.8370741540142603 C135.36490056246242 3.5201289116433587, 149.20105843304165 6.926066843824782, 160.84647282052978 12.336650548127267 C172.4918872080179 17.747234252429752, 182.92267988726684 24.938405321165355, 191.5039277063612 34.30057637982917 C200.08517552545555 43.66274743849298, 208.2748137926622 56.97305695156364, 212.33395973509585 68.50967690011012 C216.3931056775295 80.0462968486566, 217.73602925986086 91.95104974592842, 215.85880336096312 103.52029607110804 C213.9815774620654 115.08954239628765, 207.83963096605746 127.64460557847265, 201.07060434170944 137.9251548511878 C194.30157771736143 148.20570412390296, 185.610415774127 158.0187268459189, 175.24464361487497 165.203591707399 C164.87887145562294 172.3884565688791, 152.11929518293124 177.576655651127, 138.8759713861972 181.03434402006843 C125.63264758946316 184.49203238900986, 109.68310164097862 187.08309082202973, 95.78470083447078 185.94972192104763 C81.88630002796295 184.81635302006552, 67.2908202112178 180.05762592388191, 55.48556654715016 174.2341306141758 C43.6803128830825 168.41063530446968, 33.37906379268399 160.46579226432146, 24.953178850064845 151.00875006281086 C16.527293907445696 141.55170786130026, 9.1025214312637 129.0810476048339, 4.930256891435278 117.49187740511216 C0.7579923516068563 105.90270720539041, -1.2541267795038376 93.04105957188582, -0.08040838890568125 81.47372886448034 C1.093310001692475 69.90639815707485, 5.402165799364201 58.16809255943478, 11.972567235024215 48.08789316067924 C18.54296867068423 38.007693761923704, 28.40617900847414 28.18280761285463, 39.342000225054406 20.992532471947115 C50.27782144163467 13.802257331039598, 71.09906904658011 7.3398568254546745, 77.58749453450581 4.946242315234144 C84.0759200224315 2.552627805013614, 77.67350621902858 5.186274022080127, 78.27255315260861 6.630845410623934" stroke="#000000" stroke-width="1" fill="none"></path></g><g transform="translate(733 493) rotate(0 51.5 12.5)"><text x="0" y="18" font-family="Virgil, Segoe UI Emoji" font-size="20px" fill="#000000" text-anchor="start" style="white-space: pre;" direction="ltr">faded blue</text></g><g><g transform="translate(356 163) rotate(0 -13.823496959712315 16.448360868897282)"><path d="M0.43946598730981346 -0.13732656799256793 C-3.8921640161424875 5.550776785984635, -22.527763402834537 28.532781774178144, -27.090763569250704 34.15174869932234 M-0.7889530986919999 -1.255026961527765 C-5.190210142768919 4.126198401488363, -23.60595805827528 27.16856899384409, -28.086459906734525 32.633842017687854" stroke="#000000" stroke-width="1" fill="none"></path></g><g transform="translate(356 163) rotate(0 -13.823496959712315 16.448360868897282)"><path d="M-21.39612726018125 12.317636241467046 C-20.684716952384246 16.796065127266765, -23.084441502346973 19.266162194423107, -29.09960405152291 31.15282893758267 M-20.72430578608358 11.81201241005336 C-21.59911434906386 15.868738918676058, -23.059062521712608 20.289514432247376, -27.321971368938684 33.26004996076226" stroke="#000000" stroke-width="1" fill="none"></path></g><g transform="translate(356 163) rotate(0 -13.823496959712315 16.448360868897282)"><path d="M-10.053145763785633 21.482917032434422 C-11.705693402402964 24.09420408301154, -16.46760939971021 24.655618860259032, -29.09960405152291 31.15282893758267 M-9.381324289687964 20.977293201020736 C-12.537650594638938 23.09722248507227, -16.276182699359257 25.67687169954325, -27.321971368938684 33.26004996076226" stroke="#000000" stroke-width="1" fill="none"></path></g></g><g><g transform="translate(470 159) rotate(0 16.24221310652797 15.655930097345248)"><path d="M-0.2670233186334372 0.9173862453550099 C5.3100621723880375 5.677790009602904, 27.368012188250823 24.84967238865793, 32.75144953168929 29.620344173535706 M1.793650709744543 0.3534100788272916 C7.340684794740131 5.802393567506223, 27.282599718129887 25.914327180925756, 32.19791507219896 30.958450115863233" stroke="#000000" stroke-width="1" fill="none"></path></g><g transform="translate(470 159) rotate(0 16.24221310652797 15.655930097345248)"><path d="M13.921611779504719 22.79009801136563 C16.61094519535197 23.905754068653728, 21.247416417430514 24.347447179278618, 33.76847431493923 31.423656431604176 M12.343737343461516 21.21319576991955 C19.036842781858812 24.13466762048544, 23.398791576223076 27.990299408242233, 31.2460945747979 31.631220069359987" stroke="#000000" stroke-width="1" fill="none"></path></g><g transform="translate(470 159) rotate(0 16.24221310652797 15.655930097345248)"><path d="M24.610720115370892 12.263550205761966 C24.81950937110266 15.889631676146053, 26.88263424830597 18.86553554304256, 33.76847431493923 31.423656431604176 M23.03284567932769 10.686647964315888 C26.54331476648545 16.747195609388033, 27.712391022369236 23.74714255959288, 31.2460945747979 31.631220069359987" stroke="#000000" stroke-width="1" fill="none"></path></g></g><g><g transform="translate(622 335) rotate(0 45.94531785318628 52.58467798892411)"><path d="M-0.12205797471106061 0.13950272239744654 C15.294291249538462 17.76623980440199, 77.74356073898574 86.98709824718534, 93.53591284714639 104.64904460348188 M-1.645277140773833 -0.8328622936829925 C13.481634137394526 17.064779504574833, 76.37031125800064 88.47140161518007, 92.34422162827104 106.00221827153116" stroke="#000000" stroke-width="1" fill="none"></path></g><g transform="translate(622 335) rotate(0 45.94531785318628 52.58467798892411)"><path d="M66.14722160418034 91.03432921178464 C75.41293169106758 98.3740387978774, 88.06442702013153 103.15870743110908, 91.90919699985534 106.92838001709431 M65.35526231751294 92.36760248940263 C72.04559906923733 94.63018435468564, 78.49831666889621 98.79323669025037, 93.17678808793426 106.81779267445206" stroke="#000000" stroke-width="1" fill="none"></path></g><g transform="translate(622 335) rotate(0 45.94531785318628 52.58467798892411)"><path d="M81.45454223992292 77.36663235604449 C84.6776225638864 89.97312907791084, 91.41307126396671 100.04015468487486, 91.90919699985534 106.92838001709431 M80.66258295325551 78.69990563366248 C83.71430658970456 84.06620617350194, 86.52876485303845 91.47781041927783, 93.17678808793426 106.81779267445206" stroke="#000000" stroke-width="1" fill="none"></path></g></g><g><g transform="translate(526 357) rotate(0 -149.82553727869873 42.704299009796244)"><path d="M-0.4988474305719137 -0.6643211368471383 C-50.77603701607634 13.240045779760306, -251.2723088883484 70.19189453778479, -301.09119349643584 84.53582635002212 M1.4401189390383662 1.6013063209690155 C-48.526626752198986 16.22289340390203, -248.71394134633863 72.42151489287306, -298.9281772528775 86.07291915643962" stroke="#000000" stroke-width="1" fill="none"></path></g><g transform="translate(526 357) rotate(0 -149.82553727869873 42.704299009796244)"><path d="M-275.6093556890887 66.91275584960951 C-282.8341519334421 75.66501634502522, -289.8870798239289 79.17994060820926, -296.9694439531304 84.0880312491581 M-275.1689815670875 68.21199897101744 C-281.28028075220726 73.17905448029546, -287.49516748799516 77.96419514799419, -298.0740695199929 86.70729322828355" stroke="#000000" stroke-width="1" fill="none"></path></g><g transform="translate(526 357) rotate(0 -149.82553727869873 42.704299009796244)"><path d="M-270.1282050939896 86.68842247654483 C-279.4414522167979 88.54264965134139, -288.39996789305604 85.18232607633081, -296.9694439531304 84.0880312491581 M-269.6878309719884 87.98766559795276 C-277.46541823051314 87.58848100160886, -285.18099675551554 86.95921459940885, -298.0740695199929 86.70729322828355" stroke="#000000" stroke-width="1" fill="none"></path></g></g><g><g transform="translate(223 351) rotate(0 -14.199992464818024 23.205974205937224)"><path d="M-0.5517291191965341 0.28368726409971723 C-5.218391267831127 8.168443857009212, -24.084237643455467 39.43137942788502, -28.532074642553926 47.0249292794615 M1.3594743638858198 -0.6129808675870299 C-3.465206701594095 6.980640684800843, -24.932081275222203 37.49143041574706, -29.759459293521942 45.44044240240007" stroke="#000000" stroke-width="1" fill="none"></path></g><g transform="translate(223 351) rotate(0 -14.199992464818024 23.205974205937224)"><path d="M-23.024813478944395 18.366069568042647 C-23.452191403633332 27.187888169704802, -27.019651969230377 33.50960646159349, -28.063009665422143 46.76044040780514 M-23.553620762323533 18.30969357369561 C-25.69372649461924 29.3129344054782, -28.821821005488694 38.20536025224763, -29.273008303791286 44.916167690902945" stroke="#000000" stroke-width="1" fill="none"></path></g><g transform="translate(223 351) rotate(0 -14.199992464818024 23.205974205937224)"><path d="M-7.656751185947471 28.517828964129997 C-11.989107200024678 34.673608763678175, -19.48553871588056 38.39994664905849, -28.063009665422143 46.76044040780514 M-8.185558469326608 28.46145296978296 C-16.109412769973567 35.50391255583051, -25.095596635008647 40.526630399700316, -29.273008303791286 44.916167690902945" stroke="#000000" stroke-width="1" fill="none"></path></g></g><g transform="translate(10 592) rotate(0 75.5 87)"><path d="M95.30122519782424 3.2714855423558475 C105.41065766813105 5.355890331079339, 116.8551931232883 13.914153325016168, 125.07913238141444 22.09647121717876 C133.30307163954058 30.278789109341353, 140.39411095322282 41.407365160806684, 144.64486074658106 52.3653928953314 C148.8956105399393 63.32342062985611, 150.68806529890352 75.83976267715744, 150.5836311415639 87.84463762432705 C150.47919698422427 99.84951257149666, 148.58513107134846 113.29821639765683, 144.01825580254337 124.39464257834908 C139.45138053373827 135.49106875904133, 131.43601918254953 146.43414534085454, 123.18237952873329 154.4231947084805 C114.92873987491706 162.41224407610648, 104.99408166038111 169.2838408565729, 94.49641787964595 172.32893878410493 C83.99875409891078 175.37403671163696, 70.83751444553157 175.24361244889982, 60.19639684432232 172.69378227367267 C49.55527924311308 170.1439520984455, 39.09069209586897 164.31709010869574, 30.649712272390452 157.02995773274193 C22.208732448911938 149.74282535678813, 14.623800639487719 139.4926398809622, 9.55051790345125 128.97098801794985 C4.477235167414784 118.4493361549375, 0.9452466960519365 106.20943259880991, 0.2100158561716512 93.90004655466778 C-0.5252149837086341 81.59066051052565, 1.3297597696637111 66.64572776276552, 5.1391328641695395 55.1146717530971 C8.948505958675367 43.58361574342867, 15.347587845843922 32.99208295040934, 23.066254423206622 24.71371049665725 C30.784921000569323 16.43533804290516, 41.55166346826036 9.604178919203765, 51.451132328345736 5.444437030584567 C61.35060118843111 1.2846951419653685, 73.75915092715655 -0.36167689493326804, 82.46306758371887 -0.24474083505793942 C91.16698424028118 -0.1278047751826108, 99.10443389414338 4.253838785326963, 103.6746322677196 6.146053389836538 C108.24483064129582 8.038267994346114, 110.46328214497193 9.849351957317117, 109.88425782517618 11.108546791999515 M71.08531389755328 -1.2508781298702587 C81.08927961313321 -3.5685776935525197, 92.65927208940369 0.5594596642269005, 102.82469342664461 5.364172365661545 C112.99011476388554 10.168885067096191, 124.684982005849 18.279652187547605, 132.07784192099888 27.57739807873761 C139.47070183614875 36.87514396992761, 144.04968615554105 49.373782566229025, 147.1818529175439 61.15064771280157 C150.31401967954673 72.92751285937412, 152.0518248378035 86.42317471977371, 150.8708424930159 98.23858895817288 C149.68986014822832 110.05400319657205, 145.76230632450475 121.72516902668741, 140.09595884881824 132.04313314319657 C134.42961137313173 142.36109725970573, 126.03295747876439 153.10771378752798, 116.87275763889681 160.14637365722785 C107.71255779902924 167.18503352692773, 95.50278932021779 172.75570187378446, 85.13475980961285 174.27509236139588 C74.7667302990079 175.7944828490073, 64.64483931412538 172.80334435817932, 54.664580575267195 169.2627165828964 C44.684321836409005 165.72208880761346, 33.48247641964098 160.99073202191943, 25.253207376463713 153.03132570969836 C17.023938333286445 145.0719193974773, 9.666017998195166 132.7644337060815, 5.28896631620357 121.50627870956993 C0.9119146342119739 110.24812371305835, -1.3733061440217516 97.80620226013795, -1.0091027154858665 85.48239573062891 C-0.6448992869499814 73.15858920111987, 2.5104930709997726 58.58106674981679, 7.474186887418881 47.56343953251563 C12.43788070383799 36.54581231521447, 20.041961958903833 27.086186244537405, 28.773060183028782 19.376632426821942 C37.50415840715373 11.667078609106479, 52.67980734887888 4.3282454108982975, 59.860776232168575 1.3061166262228454 C67.04174511545827 -1.7160121584526067, 69.97852173086115 1.1004234753097226, 71.85887348276692 1.2438597187692295 C73.7392252346727 1.3872959622287364, 71.28647183076774 0.7301761549639352, 71.14288674360326 2.1667340869798863" stroke="#000000" stroke-width="1" fill="none"></path></g><g transform="translate(30 664) rotate(0 48 12.5)"><text x="0" y="18" font-family="Virgil, Segoe UI Emoji" font-size="20px" fill="#000000" text-anchor="start" style="white-space: pre;" direction="ltr">dark olive</text></g><g><g transform="translate(112 545) rotate(0 -7.136640561167155 17.133471900466873)"><path d="M-0.6815370496362447 0.7250770088285208 C-3.0665410971889893 6.361364256963134, -12.262794877712924 27.461791252717376, -15.007706838473677 32.78320003710687 M1.1615172699652612 0.060138493124395564 C-1.2336351913648347 5.972344294730574, -12.764381057464828 28.585308448616413, -15.434798392299562 34.20680530780926" stroke="#000000" stroke-width="1" fill="none"></path></g><g transform="translate(112 545) rotate(0 -7.136640561167155 17.133471900466873)"><path d="M-12.328849015670894 17.49517252432058 C-14.408495821640328 18.617267497520334, -15.089871329001301 26.51587204402962, -17.135781045505798 36.032764181000786 M-14.11259902906145 16.049090648354937 C-14.375387772078575 22.679462739231713, -14.712331161207237 29.70523623853924, -15.013741246618062 34.19156662255529" stroke="#000000" stroke-width="1" fill="none"></path></g><g transform="translate(112 545) rotate(0 -7.136640561167155 17.133471900466873)"><path d="M-1.0795837573691929 23.043969074100875 C-5.832139130620714 22.76014336889394, -9.23425953992598 29.316717162452523, -17.135781045505798 36.032764181000786 M-2.8633337707597493 21.597887198135233 C-7.538909394421451 26.0350293987665, -12.266433724105676 30.8951112004312, -15.013741246618062 34.19156662255529" stroke="#000000" stroke-width="1" fill="none"></path></g></g><g transform="translate(198 609) rotate(0 91.5 77)"><path d="M101.99694397284242 0.217649971502766 C114.30166646524822 0.13376252381249287, 128.67239088850968 5.477209812047754, 139.41562536663935 11.0265731746685 C150.158859844769 16.575936537289245, 159.51667785375366 24.61729870344042, 166.45635084162035 33.51383014722724 C173.39602382948704 42.41036159101406, 178.81125413536333 53.79758364541809, 181.0536632938394 64.40576183738942 C183.29607245231549 75.01394002936075, 183.1997360495916 86.87610805559503, 179.91080579247676 97.16289929905525 C176.62187553536194 107.44969054251548, 169.22998556896573 118.02994791809869, 161.3200817511504 126.12650929815078 C153.4101779333351 134.22307067820287, 143.81825279243168 140.9853189674603, 132.4513828855848 145.74226757936782 C121.0845129787379 150.49921619127534, 105.83908990915323 154.1927539907141, 93.1188623100691 154.66820096959594 C80.39863471098498 155.1436479484778, 67.58367848559797 152.76325352894858, 56.13001729108007 148.5949494526589 C44.676356096562166 144.42664537636924, 32.91321225390486 137.69116653312147, 24.396895142961668 129.65837651185797 C15.88057803201848 121.62558649059446, 8.989074033908222 110.62487001749561, 5.032114625420945 100.39820932507784 C1.0751552169336684 90.17154863266008, -0.8555500133219713 78.86135240372052, 0.6551386920380082 68.29841235735134 C2.1658273973979876 57.73547231098216, 7.436469925993748 46.32080233071454, 14.096246857580823 37.020569046862796 C20.756023789167898 27.720335763011047, 30.355232677472628 18.321142921364775, 40.61380028156046 12.49701265424084 C50.87236788564829 6.672882387116908, 64.74042143512666 3.916415863438231, 75.6476524821078 2.0757874441192 C86.55488352908894 0.2351590248001696, 100.29693210573193 1.1917873689053735, 106.05718656344732 1.453242138326658 C111.81744102116271 1.7146969077479426, 110.37585945909629 2.3076092930929546, 110.20917922840017 3.6445160606469074 M92.29525079902048 -1.1530007691061996 C104.32319657396692 -2.394630356922254, 117.77386453422388 2.757855951930381, 129.1692375732087 7.5533883831436555 C140.56461061219352 12.34892081435693, 152.39977064400557 19.53798157985188, 160.66748903292944 27.620193818173448 C168.9352074218533 35.702406056495015, 175.14814357534289 45.65566165254472, 178.77554790675185 56.04666181307306 C182.40295223816082 66.4376619736014, 184.00082289272183 79.45668477729751, 182.4319150213833 89.96619478134348 C180.86300715004478 100.47570478538944, 176.28513837562275 110.62182125595055, 169.3621006787207 119.10372183734889 C162.43906298181867 127.58562241874722, 151.6643997134468 135.2393214658563, 140.89368883997102 140.85759826973344 C130.12297796649523 146.47587507361058, 117.58361270884278 151.37145761734953, 104.737835437866 152.81338266061175 C91.89205816688921 154.25530770387397, 76.22257599217663 152.42523241043787, 63.819025214110354 149.50914852930674 C51.41547443604407 146.5930646481756, 39.597517256726654 142.17276064876592, 30.316530769468315 135.316879373825 C21.035544282209976 128.4609980988841, 13.015928845957443 118.33012590477038, 8.13310629056032 108.37386087966132 C3.2502837351631984 98.41759585455226, 1.1157860235352832 86.18328772904545, 1.0195954370855844 75.57928922317062 C0.9234048506358855 64.97529071729579, 2.2050852475563225 54.33145244157854, 7.555962771862127 44.74986984441235 C12.906840296167932 35.16828724724616, 23.56337885583028 25.187436071406218, 33.12486058292041 18.089793640173482 C42.686342310010545 10.992151208940747, 54.93642404789857 5.061733234560377, 64.92485313440292 2.164015257015933 C74.91328222090728 -0.7337027205285103, 88.4296273088632 0.9902722453383059, 93.05543510194653 0.7034857749068237 C97.68124289502985 0.4166993044753416, 92.67374138598744 -0.7248628857224304, 92.67969989290289 0.44329643442704025" stroke="#000000" stroke-width="1" fill="none"></path></g><g transform="translate(222 670) rotate(0 58 12.5)"><text x="0" y="18" font-family="Virgil, Segoe UI Emoji" font-size="20px" fill="#000000" text-anchor="start" style="white-space: pre;" direction="ltr">vibrant plum</text></g><g><g transform="translate(205 550) rotate(0 25.884283406799625 25.585771416071793)"><path d="M0.7424583736807107 0.008155941590666682 C9.36401535111169 8.61834684573114, 43.60365609166523 42.449867438897485, 52.0954565230757 50.78182538710534 M-0.32688970947638163 -1.0331661344133318 C8.112963392293702 7.839242742601781, 42.68195667083686 43.56712463254109, 51.19752573406324 52.204708966556936" stroke="#000000" stroke-width="1" fill="none"></path></g><g transform="translate(205 550) rotate(0 25.884283406799625 25.585771416071793)"><path d="M24.185210040597088 39.340737229400446 C32.64488488983176 42.807445585602395, 40.27400309306127 48.20319866196537, 49.5853847004287 52.54487439351156 M24.736617304211325 38.320759152249565 C32.823646236419535 42.957245456572444, 39.846357829277096 47.24591905617289, 50.6781551139243 51.66550423962995" stroke="#000000" stroke-width="1" fill="none"></path></g><g transform="translate(205 550) rotate(0 25.884283406799625 25.585771416071793)"><path d="M38.87913704223253 25.015636473857803 C42.37735905099541 33.30784108050667, 45.1499939815611 43.43817683111142, 49.5853847004287 52.54487439351156 M39.430544305846766 23.995658396706922 C43.12763964726426 33.063445737835636, 45.650097667214254 41.73941388777763, 50.6781551139243 51.66550423962995" stroke="#000000" stroke-width="1" fill="none"></path></g></g><g transform="translate(11 10) rotate(0 79 67)"><path d="M65.98438354051697 0.14352343125025868 C76.71708114821665 -2.411019545564661, 91.2502308240731 -0.9476769391390341, 102.43980800468103 2.031758972099567 C113.62938518528895 5.0111948833381685, 124.61765444580978 11.172585516505901, 133.1218466241645 18.020138898681864 C141.62603880251925 24.867692280857828, 149.36599593713072 33.66695157461011, 153.46496107480942 43.11707926515534 C157.56392621248813 52.56720695570057, 159.10418064130317 64.59344138718834, 157.71563745023678 74.72090504195324 C156.3270942591704 84.84836869671815, 151.3320875980716 95.7066614764901, 145.13370192841106 103.88186119374475 C138.9353162587505 112.05706091099941, 130.53622028315 118.90403260004925, 120.52532343227338 123.77210334548121 C110.51442658139676 128.64017409091318, 96.89959809720536 132.02880729579758, 85.06832082315134 133.0902856663365 C73.23704354909732 134.15176403687545, 60.35507294491044 133.75655850853678, 49.53765978794928 130.14097356871486 C38.72024663098812 126.52538862889293, 27.847904953781185 119.01048235715608, 20.163841881384386 111.39677602740493 C12.479778808987586 103.78306969765377, 6.435282096592026 94.11557601295479, 3.433281353568475 84.45873559020797 C0.43128061054492406 74.80189516746114, -0.11560042172993557 63.025455219786565, 2.15183742324308 53.45573349092393 C4.419275268216095 43.8860117620613, 10.062998782738884 34.745856483902635, 17.03790842340657 27.040405217032152 C24.012818064074256 19.33495395016167, 34.92003663966453 11.789872332458199, 44.001295267249205 7.2230258897010415 C53.08255389483388 2.6561794469438844, 66.26458917966053 0.5576165534062637, 71.52546018891461 -0.36067343951079067 C76.78633119816868 -1.2789634324278452, 75.51434624672675 0.4726991972660457, 75.56652132277364 1.7132859321987155 M102.43580825624814 2.382515955637686 C113.46454852013663 3.749701039661989, 124.33145344345775 9.63158856055648, 132.47771959491848 16.4852070637761 C140.62398574637922 23.338825566995723, 147.34838624641802 33.87242964760349, 151.3134051650126 43.50422697495542 C155.27842408360718 53.136024302307355, 157.26702153283873 64.34757217555301, 156.2678331064859 74.2759910278877 C155.2686446801331 84.20440988022239, 151.27216386618454 94.88091242023731, 145.31827460689576 103.07474008896358 C139.36438534760697 111.26856775768985, 130.36920247481092 118.21096466910443, 120.54449755075319 123.43895704024537 C110.71979262669547 128.6669494113863, 97.84459304344789 133.32410256601094, 86.37004506254937 134.4426943158092 C74.89549708165084 135.56128606560748, 62.56480343245824 133.5475348945091, 51.69720966536205 130.15050753903495 C40.829615898265864 126.7534801835608, 29.30838112950734 121.17782489325482, 21.16448245997225 114.0605301829643 C13.020583790437156 106.94323547267378, 5.922955095920203 97.01741309129937, 2.833817648151495 87.44673927729184 C-0.25531979961721385 77.8760654632843, 0.6354148813487892 66.81479493608401, 2.6296577733599946 56.636487298919086 C4.6239006653712 46.45817966175415, 8.311634514288219 34.72810071875854, 14.799275000218728 26.376893454302248 C21.286915486149237 18.025686189845956, 30.868560824791096 11.031002721276398, 41.555500688943056 6.529243712181334 C52.242440553095015 2.0274847030862686, 68.87368470932323 -0.03546910289527594, 78.9209141851305 -0.6336606002681435 C88.96814366093777 -1.2318520976410112, 98.40898221330866 2.386792881149956, 101.83887754378665 2.9400947279441283 C105.26877287426464 3.4933965747383007, 99.92538953920815 1.7756851228644464, 99.50028616799841 2.6861504804968916" stroke="#000000" stroke-width="1" fill="none"></path></g><g transform="translate(34 72) rotate(0 59.5 12.5)"><text x="0" y="18" font-family="Virgil, Segoe UI Emoji" font-size="20px" fill="#000000" text-anchor="start" style="white-space: pre;" direction="ltr">dark orange</text></g><g><g transform="translate(138.12467027314426 146.43913130852843) rotate(0 28.439460514933558 28.87150652443171)"><path d="M0.990129191055894 0.9261814590543509 C10.53384155720805 10.590138045661526, 47.509835633652145 48.097522302532575, 56.828112742846294 57.37619026914463 M0.05080828702077267 0.3668227797187864 C9.518694367691475 9.730152891111, 46.74761052787104 45.9894411426615, 56.14530253581835 55.56468682335913" stroke="#000000" stroke-width="1" fill="none"></path></g><g transform="translate(138.12467027314426 146.43913130852843) rotate(0 28.439460514933558 28.87150652443171)"><path d="M30.457832917728425 43.8183398520201 C37.02209826363528 47.034179663251585, 42.90953683547592 50.87728376456996, 55.399214010537996 57.125483015275 M28.541840762988627 42.96103840727355 C38.792601509594995 48.08556278534729, 47.74466963114338 51.107410833990485, 55.36264157001062 55.73720631813854" stroke="#000000" stroke-width="1" fill="none"></path></g><g transform="translate(138.12467027314426 146.43913130852843) rotate(0 28.439460514933558 28.87150652443171)"><path d="M44.920345528341265 29.259640343695057 C47.5954031583167 36.43568579436777, 49.667343405680214 44.11966423586253, 55.399214010537996 57.125483015275 M43.00435337360147 28.402338898948503 C47.93257048995128 38.880600940469556, 51.6832104346144 47.138470687433575, 55.36264157001062 55.73720631813854" stroke="#000000" stroke-width="1" fill="none"></path></g></g><g transform="translate(167 146) rotate(0 7 12.5)"><text x="0" y="18" font-family="Virgil, Segoe UI Emoji" font-size="20px" fill="#000000" text-anchor="start" style="white-space: pre;" direction="ltr">3</text></g><g transform="translate(224.5 546) rotate(0 7.5 12.5)"><text x="7.5" y="18" font-family="Virgil, Segoe UI Emoji" font-size="20px" fill="#000000" text-anchor="middle" style="white-space: pre;" direction="ltr">2</text></g><g transform="translate(483 148) rotate(0 7.5 12.5)"><text x="0" y="18" font-family="Virgil, Segoe UI Emoji" font-size="20px" fill="#000000" text-anchor="start" style="white-space: pre;" direction="ltr">2</text></g><g transform="translate(379 368) rotate(0 7.5 12.5)"><text x="0" y="18" font-family="Virgil, Segoe UI Emoji" font-size="20px" fill="#000000" text-anchor="start" style="white-space: pre;" direction="ltr">2</text></g><g transform="translate(669.5 359) rotate(0 5.5 12.5)"><text x="5.5" y="18" font-family="Virgil, Segoe UI Emoji" font-size="20px" fill="#000000" text-anchor="middle" style="white-space: pre;" direction="ltr">9</text></g><g><g transform="translate(192 96) rotate(0 130.80298876799645 67.67081995569168)"><path d="M-0.8558341439813375 -0.7699641231447458 C42.76396069762607 22.01350177489221, 218.64611420469978 113.3121083971113, 262.4618116799742 136.11160403452814 M0.8957142010889947 1.4402007668651642 C44.24538004572813 23.96685400957242, 217.3092052932146 112.44204209381715, 261.2312173483335 134.5726214038767" stroke="#000000" stroke-width="1" fill="none"></path></g><g transform="translate(192 96) rotate(0 130.80298876799645 67.67081995569168)"><path d="M230.16778648098776 130.05041957054667 C244.06397490313117 130.86908279966383, 254.70102541590973 134.42602945699534, 262.7893154056184 133.52394460575655 M231.81628738635996 130.83762279212854 C240.34578206516946 133.093389986466, 247.86782575997 133.1189317082485, 260.6077137778886 135.43177245898173" stroke="#000000" stroke-width="1" fill="none"></path></g><g transform="translate(192 96) rotate(0 130.80298876799645 67.67081995569168)"><path d="M239.46526710682681 111.7562440931444 C249.90668621946128 119.12963014291414, 257.17879050618285 129.3076087990032, 262.7893154056184 133.52394460575655 M241.11376801219902 112.54344731472628 C247.32261422630887 119.58796691548397, 252.37046911824308 124.4818429684043, 260.6077137778886 135.43177245898173" stroke="#000000" stroke-width="1" fill="none"></path></g></g><g transform="translate(224 82) rotate(0 6 12.5)"><text x="0" y="18" font-family="Virgil, Segoe UI Emoji" font-size="20px" fill="#000000" text-anchor="start" style="white-space: pre;" direction="ltr">4</text></g><g><g transform="translate(152 608) rotate(0 259.29021425284446 -47.89998578881841)"><path d="M-0.8146146710962057 -0.6647884849458933 C85.93048788942394 -16.6857562823842, 432.6649266544729 -79.65879526970288, 519.3950431767851 -95.8708134058863 M0.9585738972388209 1.6005936151184144 C87.67433401321992 -14.749514527774105, 432.2978942791186 -80.94858599807446, 518.6543953809701 -97.40056519275531" stroke="#000000" stroke-width="1" fill="none"></path></g><g transform="translate(152 608) rotate(0 259.29021425284446 -47.89998578881841)"><path d="M491.786481803757 -81.36601396559352 C500.1628577038368 -84.14073920085788, 502.13847544024526 -87.26832264815752, 517.988150853645 -97.69014369947836 M493.5821025888518 -82.95509665461803 C502.2213376121085 -87.61519793781355, 513.546381721212 -93.18086448635907, 519.0019135819562 -98.34948539333418" stroke="#000000" stroke-width="1" fill="none"></path></g><g transform="translate(152 608) rotate(0 259.29021425284446 -47.89998578881841)"><path d="M487.92956512978316 -101.52151436017222 C497.1601459999756 -100.02996493833881, 499.94713938028116 -98.91745623610579, 517.988150853645 -97.69014369947836 M489.72518591487795 -103.11059704919673 C499.77385707212665 -99.9544291000637, 512.5945945630733 -97.70389138593063, 519.0019135819562 -98.34948539333418" stroke="#000000" stroke-width="1" fill="none"></path></g></g><g transform="translate(420 526) rotate(0 7 12.5)"><text x="0" y="18" font-family="Virgil, Segoe UI Emoji" font-size="20px" fill="#000000" text-anchor="start" style="white-space: pre;" direction="ltr">3</text></g><g transform="translate(186 844) rotate(0 107 98.5)"><path d="M141.9662165189146 6.111766519034944 C154.68776421997228 8.274123929073562, 167.04653649091088 15.640707158580664, 177.23746859413382 23.80893472482073 C187.42840069735675 31.977162291060797, 196.9922008794847 43.821087645579624, 203.11180913825217 55.12113191647534 C209.23141739701964 66.42117618737106, 212.9122616605135 79.43094883941392, 213.95511814673858 91.60920035019504 C214.99797463296366 103.78745186097616, 213.56474557741595 116.60740591426836, 209.36894805560257 128.19064098116212 C205.1731505337892 139.77387604805588, 197.5620059543101 151.65269010130766, 188.78033301585833 161.10861075155762 C179.99866007740656 170.56453140180759, 168.72275936254877 179.04078223553398, 156.6789104248919 184.92616488266194 C144.63506148723505 190.8115475297899, 130.07366194652977 195.0302601961746, 116.51723938991722 196.42090663432543 C102.96081683330468 197.81155307247627, 88.21806643287174 196.76568253294133, 75.34037508521666 193.27004351156705 C62.46268373756159 189.77440449019278, 49.50088259285931 183.44303372282425, 39.25109130398678 175.4470725060798 C29.001300015114253 167.45111128933533, 20.428838840670924 156.15487049406215, 13.841627351981487 145.29427621110025 C7.254415863292048 134.43368192813836, 1.4837190457570817 122.41185761683064, -0.2721776281498478 110.28350680830836 C-2.028074302056777 98.15515599978607, -0.542736343135457 84.71892385941656, 3.306247308539909 72.52417135996652 C7.155230960215276 60.329418860516476, 14.408368159219494 46.95912264957296, 22.82172428190235 37.1149918116081 C31.235080404585204 27.270860973643238, 41.96683095669425 19.366928629593893, 53.78638404463703 13.45938633217736 C65.60593713257981 7.551844034760827, 80.32294321490058 3.2175398634201526, 93.73904280955902 1.669738027108906 C107.15514240421747 0.1219361907976595, 123.91831081169161 2.5838729816432746, 134.28298161258772 4.172575314309881 C144.64765241348383 5.761277646976488, 150.65899630122252 8.75494406618616, 155.92706761493565 11.201952023108547 C161.1951389286488 13.648959980030932, 166.77517979014306 17.467564872086193, 165.89140949486656 18.8546230558442 M102.85529150247577 0.6564143651317096 C115.5893816367921 -1.5100891408672155, 129.9571750838065 2.0212879596785003, 142.5963079125942 6.107149870401116 C155.2354407413819 10.193011781123733, 168.65152347721852 17.02435031628353, 178.69008847520186 25.171585829467404 C188.7286534731852 33.318821342651276, 196.73699654869063 43.58447917226564, 202.82769790049417 54.99056294950436 C208.91839925229772 66.39664672674307, 214.46437931485028 80.74548174435351, 215.23429658602316 93.60808849289971 C216.00421385719605 106.47069524144591, 211.9405820061652 120.47775149326752, 207.4472015275315 132.16620344078152 C202.9538210488978 143.85465538829553, 197.19896744766825 154.48608362589286, 188.27401371422104 163.7388001779837 C179.34905998077383 172.99151673007455, 166.41875185895776 182.07560612964303, 153.89747912684817 187.68250275332665 C141.37620639473857 193.28939937701026, 126.79570981265768 196.44915439729388, 113.14637732156348 197.38017992008537 C99.49704483046928 198.31120544287685, 84.61836006942008 197.31963049819635, 72.00148418028297 193.2686558900755 C59.38460829114586 189.21768128195467, 47.6476841627714 181.24845029192912, 37.4451219867408 173.07433227136033 C27.242559810710205 164.90021425079155, 16.92769776122299 155.16198687108374, 10.786111124099378 144.22394776666283 C4.644524486975766 133.28590866224192, 1.6644958474250278 120.04588840797884, 0.595602163999132 107.44609764483484 C-0.47329151942676373 94.84630688169084, 0.3011920604963523 80.36513623166398, 4.372749023544003 68.62520318779883 C8.444305986591655 56.885270143933674, 16.386989767560323 46.298566036748205, 25.024943942285034 37.00649938164391 C33.662898117009746 27.71443272653962, 44.2948049862622 18.90421495689571, 56.200474071892266 12.87280325717309 C68.10614315752233 6.841391557450468, 88.42327151389074 2.991740234174022, 96.45895845606542 0.8180291833081839 C104.4946453982401 -1.3556818675576543, 103.33024510682006 -0.38453298691714366, 104.4145957249403 -0.1694630480219388 C105.49894634306054 0.04560689087326608, 103.11014260641792 0.19278509586019044, 102.96506216478686 2.108448816679413" stroke="#000000" stroke-width="1" fill="none"></path></g><g transform="translate(233 934) rotate(0 62.5 12.5)"><text x="0" y="18" font-family="Virgil, Segoe UI Emoji" font-size="20px" fill="#000000" text-anchor="start" style="white-space: pre;" direction="ltr">dotted black</text></g><g><g transform="translate(150 761) rotate(0 28.374065061453706 50.65696408662944)"><path d="M1.135134982690215 -0.29925056062638755 C10.561931772654255 16.8419311268876, 47.32828334930042 84.73222074744602, 56.476188003644346 101.87112391628325 M0.2719421192631124 -1.5019610502943397 C9.589785935146113 15.830208771365383, 46.61201323873053 85.2977134280776, 55.77814124193043 102.81588922355324" stroke="#000000" stroke-width="1" fill="none"></path></g><g transform="translate(150 761) rotate(0 28.374065061453706 50.65696408662944)"><path d="M33.029383366232814 83.48648465869074 C38.00116534607126 88.41502986447972, 45.62439257479876 93.34809448261451, 54.52069941390306 100.84140851449222 M34.32191858091772 83.45383271367346 C42.264613915402975 90.39205161687615, 51.56796619904725 97.69463747562003, 56.190542609840634 101.84231961712241" stroke="#000000" stroke-width="1" fill="none"></path></g><g transform="translate(150 761) rotate(0 28.374065061453706 50.65696408662944)"><path d="M51.169744135414646 73.89235553980933 C50.74926689864355 81.80310466273994, 53.058264459285645 89.54677521378535, 54.52069941390306 100.84140851449222 M52.46227935009955 73.85970359479205 C53.309625258711854 84.49070650994263, 55.500420616225306 95.55500308563225, 56.190542609840634 101.84231961712241" stroke="#000000" stroke-width="1" fill="none"></path></g></g><g transform="translate(146 817) rotate(0 6 12.5)"><text x="0" y="18" font-family="Virgil, Segoe UI Emoji" font-size="20px" fill="#000000" text-anchor="start" style="white-space: pre;" direction="ltr">4</text></g><g><g transform="translate(396 658) rotate(0 141.46709973043767 -43.85181734003123)"><path d="M0.2754342857748271 -0.5115913633257151 C47.784318838889405 -15.011994636431336, 236.67303031918905 -72.68679575957358, 283.9733009044081 -87.19204331673681 M-1.0391014435328545 -1.825780774410814 C46.49142621115471 -16.122028017695992, 236.05025236781069 -71.6412867451273, 283.53623841559516 -85.75544080680237" stroke="#000000" stroke-width="1" fill="none"></path></g><g transform="translate(396 658) rotate(0 141.46709973043767 -43.85181734003123)"><path d="M258.5458364231679 -66.3184182004864 C264.17548202505867 -69.94200298646699, 268.65934091483473 -74.90435931613324, 283.84510620726275 -84.398269221019 M260.1090696059334 -67.489452924938 C267.19052458180283 -73.93816628772367, 273.3581984735426 -78.9552020000694, 283.46858910607176 -85.2552608110197" stroke="#000000" stroke-width="1" fill="none"></path></g><g transform="translate(396 658) rotate(0 141.46709973043767 -43.85181734003123)"><path d="M252.7418294033628 -86.00174883582076 C259.5592098307659 -85.50516656398065, 265.2619070923242 -86.33403398142511, 283.84510620726275 -84.398269221019 M254.30506258612834 -87.17278356027236 C263.29959164123676 -87.67119500994397, 271.2170626039021 -86.75408312835312, 283.46858910607176 -85.2552608110197" stroke="#000000" stroke-width="1" fill="none"></path></g></g><g transform="translate(484 607) rotate(0 7 12.5)"><text x="0" y="18" font-family="Virgil, Segoe UI Emoji" font-size="20px" fill="#000000" text-anchor="start" style="white-space: pre;" direction="ltr">5</text></g><g><g transform="translate(359 761) rotate(0 -10.235513772405682 38.142835142519345)"><path d="M-0.8496147517114878 -0.5536798652261495 C-4.2658117615928255 12.200456152732173, -17.18049719768266 62.61977066037555, -20.280774331465363 75.54224583543837 M0.9051987743005157 1.7700342601910233 C-2.7125229545806846 14.774459435778361, -17.90387709541867 64.60872704529515, -21.376226319111883 76.8393501502648" stroke="#000000" stroke-width="1" fill="none"></path></g><g transform="translate(359 761) rotate(0 -10.235513772405682 38.142835142519345)"><path d="M-24.148299599866967 46.428444053293035 C-23.64546705263363 57.34690688974632, -20.6591263283811 66.81237529051991, -22.82089104514569 77.42835977237672 M-22.235524501520793 45.99521632144676 C-21.592533402811767 55.39151443450582, -21.373181407666888 64.40690586848189, -21.886062138825654 76.5544967468083" stroke="#000000" stroke-width="1" fill="none"></path></g><g transform="translate(359 761) rotate(0 -10.235513772405682 38.142835142519345)"><path d="M-4.468695250923208 52.24507323649473 C-10.177018489169374 61.17431634120464, -13.44946060806696 68.78989902825741, -22.82089104514569 77.42835977237672 M-2.555920152577034 51.81184550464846 C-7.931817083227639 59.48032111044452, -13.698478202430918 66.72644838877132, -21.886062138825654 76.5544967468083" stroke="#000000" stroke-width="1" fill="none"></path></g></g><g transform="translate(370 801) rotate(0 5 12.5)"><text x="0" y="18" font-family="Virgil, Segoe UI Emoji" font-size="20px" fill="#000000" text-anchor="start" style="white-space: pre;" direction="ltr">6</text></g></svg>